<svg width="586" height="355" viewBox="0 0 586 355" fill="none" xmlns="http://www.w3.org/2000/svg">
<path opacity="0.1" d="M579.819 331.165C577.553 336.746 574.766 342.102 571.497 347.16C569.962 349.573 568.278 351.888 566.457 354.092L566.401 354.158H2.83972L2.94114 354.087C3.44824 353.691 6.42489 351.281 11.0547 347.155C14.3762 344.191 18.5445 340.345 23.225 335.717C61.5056 298.039 135.04 208.855 73.7977 127.156C16.866 51.2068 78.1637 37.4195 118.6 35.8159C134.137 35.2124 149.636 37.7476 164.172 43.2703C182.849 50.3746 216.991 61.2695 261.474 66.2577C262.934 66.4234 264.408 66.5825 265.896 66.7347C289.446 69.1324 313.156 69.5618 336.778 68.0185V68.0185C337.472 67.983 338.172 67.9323 338.877 67.8815C362.245 66.2352 385.435 62.6436 408.207 57.1439C409.683 56.7837 411.138 56.4437 412.588 56.129C488.465 38.5612 558.414 98.4349 540.929 166.103C534.459 191.125 536.102 217.807 557.664 239.383C592.932 274.62 588.637 309.31 579.819 331.165Z" fill="white"/>
<path d="M459.951 141.575C461.871 138.138 461.301 134.162 458.679 132.695C456.056 131.227 452.373 132.824 450.452 136.261C448.532 139.697 449.102 143.673 451.725 145.141C454.348 146.608 458.031 145.012 459.951 141.575Z" fill="#3F3D56"/>
<path d="M464.198 133.969C466.118 130.532 465.549 126.556 462.926 125.088C460.303 123.621 456.62 125.217 454.7 128.654C452.779 132.091 453.349 136.067 455.972 137.534C458.595 139.002 462.278 137.405 464.198 133.969Z" fill="#3F3D56"/>
<path d="M468.45 126.364C470.37 122.928 469.801 118.952 467.178 117.484C464.555 116.017 460.872 117.613 458.951 121.05C457.031 124.487 457.601 128.463 460.224 129.93C462.847 131.398 466.53 129.801 468.45 126.364Z" fill="#3F3D56"/>
<path d="M472.697 118.753C474.617 115.316 474.048 111.34 471.425 109.873C468.802 108.405 465.119 110.002 463.199 113.439C461.278 116.875 461.848 120.851 464.471 122.319C467.094 123.786 470.777 122.19 472.697 118.753Z" fill="#3F3D56"/>
<path d="M476.942 111.151C478.862 107.714 478.293 103.738 475.67 102.271C473.047 100.803 469.364 102.4 467.444 105.837C465.523 109.273 466.093 113.249 468.716 114.717C471.339 116.184 475.022 114.588 476.942 111.151Z" fill="#3F3D56"/>
<path d="M481.194 103.544C483.115 100.108 482.545 96.1318 479.922 94.6643C477.299 93.1968 473.616 94.7933 471.696 98.2301C469.776 101.667 470.345 105.643 472.968 107.11C475.591 108.578 479.274 106.981 481.194 103.544Z" fill="#3F3D56"/>
<path d="M485.446 95.9405C487.366 92.5036 486.797 88.5278 484.174 87.0603C481.551 85.5928 477.868 87.1893 475.948 90.6261C474.027 94.063 474.597 98.0388 477.22 99.5063C479.843 100.974 483.526 99.3773 485.446 95.9405Z" fill="#3F3D56"/>
<path d="M527.532 51.1712C528.642 50.707 529.72 50.1679 530.757 49.5576L519.423 40.5199L532.856 48.1722C535.726 46.077 538.138 43.4182 539.945 40.3583C541.753 37.2984 542.917 33.9018 543.368 30.3761L520.007 29.6453L543.571 26.7072C543.544 23.1099 542.773 19.5572 541.307 16.2724C539.842 12.9875 537.713 10.0414 535.055 7.61921C532.397 5.19703 529.268 3.35113 525.863 2.19747C522.458 1.04381 518.851 0.607327 515.269 0.915454C511.688 1.22358 508.208 2.26965 505.05 3.98794C501.892 5.70624 499.123 8.05961 496.917 10.9002C494.711 13.7408 493.116 17.0072 492.232 20.4942C491.349 23.9812 491.195 27.6134 491.782 31.1626C490.052 31.884 488.405 32.7891 486.868 33.8622L498.374 51.3488L484.342 35.8819C481.123 38.7906 478.68 42.4569 477.234 46.5487C475.789 50.6406 475.385 55.0287 476.062 59.3158C471.547 61.1982 467.652 64.3139 464.823 68.3066C461.995 72.2993 460.346 77.008 460.065 81.8943C459.784 86.7806 460.882 91.6475 463.235 95.9385C465.588 100.229 469.099 103.771 473.369 106.16C477.638 108.548 482.493 109.685 487.378 109.443C492.263 109.2 496.981 107.587 500.993 104.788C505.005 101.989 508.15 98.1166 510.066 93.6136C511.983 89.1107 512.595 84.1589 511.832 79.3244C517.228 77.0757 521.711 73.0771 524.563 67.9711C527.414 62.8651 528.467 56.9482 527.552 51.1712H527.532Z" fill="white"/>
<path opacity="0.1" d="M479.033 42.5143C476.183 47.6213 475.137 53.5403 476.062 59.3158C471.547 61.1983 467.652 64.3139 464.823 68.3066C461.995 72.2994 460.346 77.008 460.065 81.8944C459.784 86.7807 460.882 91.6475 463.235 95.9385C465.588 100.23 469.099 103.772 473.369 106.16C477.638 108.548 482.493 109.686 487.378 109.443C492.263 109.2 496.981 107.587 500.993 104.788C505.005 101.989 508.15 98.1166 510.066 93.6137C511.983 89.1107 512.595 84.159 511.832 79.3244C517.02 77.1576 480.463 39.977 479.033 42.5143Z" fill="black"/>
<path d="M512.872 321.59H519.013C522.375 321.59 525.599 322.926 527.977 325.305C530.354 327.685 531.69 330.911 531.69 334.276V353.107H500.194V334.276C500.194 330.911 501.53 327.685 503.907 325.305C506.285 322.926 509.509 321.59 512.872 321.59V321.59Z" fill="#3F3D56"/>
<path opacity="0.1" d="M512.872 321.59H519.013C522.375 321.59 525.599 322.926 527.977 325.305C530.354 327.685 531.69 330.911 531.69 334.276V353.107H500.194V334.276C500.194 330.911 501.53 327.685 503.907 325.305C506.285 322.926 509.509 321.59 512.872 321.59V321.59Z" fill="black"/>
<path d="M514.687 328.526C516.079 328.526 517.207 327.397 517.207 326.004C517.207 324.612 516.079 323.482 514.687 323.482C513.295 323.482 512.167 324.612 512.167 326.004C512.167 327.397 513.295 328.526 514.687 328.526Z" fill="#3F3D56"/>
<path d="M514.687 325.375C516.079 325.375 517.207 324.246 517.207 322.853C517.207 321.46 516.079 320.331 514.687 320.331C513.295 320.331 512.167 321.46 512.167 322.853C512.167 324.246 513.295 325.375 514.687 325.375Z" fill="#3F3D56"/>
<path d="M514.687 322.219C516.079 322.219 517.207 321.09 517.207 319.697C517.207 318.304 516.079 317.175 514.687 317.175C513.295 317.175 512.167 318.304 512.167 319.697C512.167 321.09 513.295 322.219 514.687 322.219Z" fill="#3F3D56"/>
<path d="M514.687 319.068C516.079 319.068 517.207 317.939 517.207 316.546C517.207 315.153 516.079 314.024 514.687 314.024C513.295 314.024 512.167 315.153 512.167 316.546C512.167 317.939 513.295 319.068 514.687 319.068Z" fill="#3F3D56"/>
<path d="M514.687 315.916C516.079 315.916 517.207 314.787 517.207 313.394C517.207 312.002 516.079 310.872 514.687 310.872C513.295 310.872 512.167 312.002 512.167 313.394C512.167 314.787 513.295 315.916 514.687 315.916Z" fill="#3F3D56"/>
<path d="M514.687 312.765C516.079 312.765 517.207 311.636 517.207 310.243C517.207 308.85 516.079 307.721 514.687 307.721C513.295 307.721 512.167 308.85 512.167 310.243C512.167 311.636 513.295 312.765 514.687 312.765Z" fill="#3F3D56"/>
<path d="M514.687 309.614C516.079 309.614 517.207 308.485 517.207 307.092C517.207 305.699 516.079 304.57 514.687 304.57C513.295 304.57 512.167 305.699 512.167 307.092C512.167 308.485 513.295 309.614 514.687 309.614Z" fill="#3F3D56"/>
<path d="M518.465 310.872C519.857 310.872 520.985 309.743 520.985 308.35C520.985 306.958 519.857 305.828 518.465 305.828C517.073 305.828 515.945 306.958 515.945 308.35C515.945 309.743 517.073 310.872 518.465 310.872Z" fill="#3F3D56"/>
<path d="M520.985 309.614C522.377 309.614 523.505 308.485 523.505 307.092C523.505 305.699 522.377 304.57 520.985 304.57C519.593 304.57 518.465 305.699 518.465 307.092C518.465 308.485 519.593 309.614 520.985 309.614Z" fill="#3F3D56"/>
<path d="M523.505 308.35C524.897 308.35 526.026 307.221 526.026 305.828C526.026 304.436 524.897 303.306 523.505 303.306C522.114 303.306 520.985 304.436 520.985 305.828C520.985 307.221 522.114 308.35 523.505 308.35Z" fill="#3F3D56"/>
<path d="M514.687 306.463C516.079 306.463 517.207 305.334 517.207 303.941C517.207 302.548 516.079 301.419 514.687 301.419C513.295 301.419 512.167 302.548 512.167 303.941C512.167 305.334 513.295 306.463 514.687 306.463Z" fill="#3F3D56"/>
<path d="M514.687 303.311C516.079 303.311 517.207 302.182 517.207 300.789C517.207 299.397 516.079 298.267 514.687 298.267C513.295 298.267 512.167 299.397 512.167 300.789C512.167 302.182 513.295 303.311 514.687 303.311Z" fill="#3F3D56"/>
<path d="M514.687 300.155C516.079 300.155 517.207 299.026 517.207 297.633C517.207 296.24 516.079 295.111 514.687 295.111C513.295 295.111 512.167 296.24 512.167 297.633C512.167 299.026 513.295 300.155 514.687 300.155Z" fill="#3F3D56"/>
<path d="M514.687 297.004C516.079 297.004 517.207 295.875 517.207 294.482C517.207 293.089 516.079 291.96 514.687 291.96C513.295 291.96 512.167 293.089 512.167 294.482C512.167 295.875 513.295 297.004 514.687 297.004Z" fill="#3F3D56"/>
<path d="M525.133 286.353C524.508 286.444 523.879 286.51 523.247 286.55C523.832 286.04 524.374 285.483 524.87 284.886C524.52 283.826 524.007 282.828 523.348 281.928C522.723 282.279 522.033 282.498 521.32 282.572C520.696 282.663 520.067 282.729 519.439 282.77C520.285 281.967 521.089 281.12 521.847 280.233C520.029 278.584 517.701 277.61 515.251 277.475C512.801 277.34 510.379 278.052 508.391 279.49C506.403 280.929 504.97 283.008 504.331 285.378C503.692 287.749 503.887 290.267 504.882 292.511C505.878 294.755 507.614 296.588 509.799 297.704C511.985 298.819 514.487 299.15 516.887 298.639C519.287 298.129 521.438 296.808 522.981 294.9C524.524 292.991 525.364 290.609 525.361 288.154C525.362 287.536 525.307 286.92 525.199 286.312L525.133 286.353Z" fill="white"/>
<path d="M533.551 298.881C532.908 299.277 532.183 299.52 531.431 299.592C530.808 299.683 530.179 299.749 529.55 299.79C530.218 299.19 530.842 298.542 531.416 297.851C530.89 297.713 530.348 297.641 529.804 297.638C528.304 297.635 526.852 298.167 525.709 299.139C524.566 300.11 523.806 301.457 523.565 302.939C523.325 304.42 523.62 305.939 524.397 307.223C525.174 308.506 526.383 309.47 527.807 309.943C529.23 310.415 530.776 310.364 532.165 309.8C533.555 309.235 534.698 308.193 535.389 306.862C536.081 305.53 536.276 303.995 535.939 302.533C535.602 301.07 534.755 299.776 533.551 298.881V298.881Z" fill="white"/>
<path d="M510.904 310.872C512.296 310.872 513.424 309.743 513.424 308.35C513.424 306.958 512.296 305.828 510.904 305.828C509.512 305.828 508.384 306.958 508.384 308.35C508.384 309.743 509.512 310.872 510.904 310.872Z" fill="#3F3D56"/>
<path d="M508.384 309.614C509.776 309.614 510.904 308.485 510.904 307.092C510.904 305.699 509.776 304.57 508.384 304.57C506.992 304.57 505.864 305.699 505.864 307.092C505.864 308.485 506.992 309.614 508.384 309.614Z" fill="#3F3D56"/>
<path d="M505.869 308.35C507.261 308.35 508.389 307.221 508.389 305.828C508.389 304.436 507.261 303.306 505.869 303.306C504.477 303.306 503.348 304.436 503.348 305.828C503.348 307.221 504.477 308.35 505.869 308.35Z" fill="#3F3D56"/>
<path d="M495.838 298.881C496.482 299.277 497.207 299.52 497.958 299.592C498.582 299.683 499.211 299.749 499.839 299.79C499.171 299.19 498.547 298.542 497.973 297.851C498.5 297.713 499.042 297.641 499.586 297.638C501.086 297.635 502.537 298.167 503.681 299.139C504.824 300.11 505.584 301.457 505.824 302.939C506.065 304.42 505.77 305.939 504.992 307.223C504.215 308.506 503.006 309.47 501.583 309.943C500.159 310.415 498.614 310.364 497.224 309.8C495.835 309.235 494.692 308.193 494 306.862C493.308 305.53 493.114 303.995 493.451 302.533C493.787 301.07 494.634 299.776 495.838 298.881V298.881Z" fill="white"/>
<path d="M512.872 323.482H519.013C522.375 323.482 525.599 324.819 527.977 327.198C530.354 329.577 531.69 332.804 531.69 336.169V352.848C531.69 353.419 531.464 353.966 531.06 354.37C530.657 354.773 530.11 355 529.54 355H502.344C501.774 355 501.227 354.773 500.824 354.37C500.421 353.966 500.194 353.419 500.194 352.848V336.169C500.194 332.804 501.53 329.577 503.907 327.198C506.285 324.819 509.509 323.482 512.872 323.482V323.482Z" fill="#3F3D56"/>
<g opacity="0.1">
<path opacity="0.1" d="M525.326 287.043C525.072 287.318 524.799 287.576 524.51 287.814C524.799 287.814 525.088 287.768 525.372 287.738C525.362 287.504 525.351 287.271 525.326 287.043Z" fill="black"/>
<path opacity="0.1" d="M520.732 284.028C521.36 283.988 521.989 283.922 522.613 283.831C523.178 283.761 523.729 283.611 524.251 283.384C523.993 282.877 523.698 282.391 523.369 281.928C523.053 282.12 522.712 282.265 522.354 282.359C521.858 282.957 521.315 283.515 520.732 284.028V284.028Z" fill="black"/>
<path opacity="0.1" d="M505.235 289.443C505.231 287.519 505.746 285.63 506.725 283.974C507.704 282.318 509.111 280.958 510.798 280.035C512.486 279.113 514.39 278.662 516.311 278.732C518.233 278.802 520.1 279.388 521.716 280.431L521.878 280.258C520.823 279.319 519.593 278.598 518.259 278.137C516.925 277.676 515.512 277.483 514.103 277.571C512.694 277.658 511.317 278.024 510.049 278.646C508.782 279.269 507.651 280.136 506.72 281.199C505.789 282.261 505.078 283.497 504.627 284.835C504.176 286.174 503.994 287.588 504.091 288.998C504.189 290.407 504.564 291.783 505.196 293.046C505.827 294.31 506.702 295.436 507.77 296.359C506.13 294.429 505.231 291.977 505.235 289.443V289.443Z" fill="black"/>
</g>
<g opacity="0.1">
<path opacity="0.1" d="M529.55 301.053C530.179 301.008 530.808 300.942 531.431 300.85C532.182 300.78 532.907 300.539 533.551 300.145C534.264 300.669 534.858 301.337 535.295 302.107C535.732 302.876 536.002 303.73 536.087 304.611C536.111 304.388 536.123 304.164 536.122 303.941C536.126 302.955 535.899 301.982 535.459 301.101C535.018 300.22 534.377 299.454 533.587 298.866C532.943 299.261 532.218 299.504 531.467 299.577L530.96 299.638C530.528 300.146 530.057 300.62 529.55 301.053Z" fill="black"/>
<path opacity="0.1" d="M529.814 298.897C530.027 298.897 530.235 298.897 530.443 298.942C530.772 298.592 531.097 298.217 531.426 297.851C530.9 297.713 530.358 297.641 529.814 297.638C528.143 297.638 526.541 298.302 525.36 299.484C524.179 300.666 523.516 302.269 523.516 303.941C523.516 304.154 523.516 304.367 523.546 304.57C523.703 303.015 524.431 301.574 525.589 300.526C526.747 299.478 528.252 298.898 529.814 298.897Z" fill="black"/>
</g>
<g opacity="0.1">
<path opacity="0.1" d="M499.819 301.053C499.19 301.008 498.562 300.942 497.938 300.85C497.187 300.78 496.462 300.539 495.818 300.145C495.105 300.669 494.511 301.337 494.074 302.107C493.637 302.876 493.367 303.73 493.283 304.611C493.258 304.388 493.246 304.164 493.247 303.941C493.243 302.955 493.47 301.982 493.91 301.101C494.351 300.22 494.992 299.454 495.783 298.866C496.426 299.261 497.151 299.504 497.902 299.577L498.409 299.638C498.842 300.145 499.313 300.618 499.819 301.053Z" fill="black"/>
<path opacity="0.1" d="M499.566 298.897C499.353 298.897 499.145 298.897 498.937 298.942C498.607 298.592 498.283 298.217 497.953 297.851C498.48 297.713 499.021 297.641 499.566 297.638C501.236 297.638 502.838 298.302 504.019 299.484C505.2 300.666 505.864 302.269 505.864 303.941C505.864 304.154 505.864 304.367 505.833 304.57C505.676 303.015 504.948 301.574 503.79 300.526C502.632 299.478 501.127 298.898 499.566 298.897V298.897Z" fill="black"/>
</g>
<path d="M28.9044 274.514H77.3524C80.7146 274.514 83.9392 275.85 86.3167 278.229C88.6941 280.609 90.0298 283.835 90.0298 287.2V348.342H16.2271V287.2C16.2271 283.835 17.5627 280.609 19.9402 278.229C22.3176 275.85 25.5422 274.514 28.9044 274.514V274.514Z" fill="#3F3D56"/>
<path opacity="0.1" d="M28.9044 274.514H77.3524C80.7146 274.514 83.9392 275.85 86.3167 278.229C88.6941 280.609 90.0298 283.835 90.0298 287.2V348.342H16.2271V287.2C16.2271 283.835 17.5627 280.609 19.9402 278.229C22.3176 275.85 25.5422 274.514 28.9044 274.514V274.514Z" fill="black"/>
<path d="M50.1873 290.737C53.4472 290.737 56.0899 288.092 56.0899 284.83C56.0899 281.568 53.4472 278.924 50.1873 278.924C46.9273 278.924 44.2847 281.568 44.2847 284.83C44.2847 288.092 46.9273 290.737 50.1873 290.737Z" fill="#3F3D56"/>
<path d="M50.1873 283.354C53.4472 283.354 56.0899 280.709 56.0899 277.447C56.0899 274.185 53.4472 271.54 50.1873 271.54C46.9273 271.54 44.2847 274.185 44.2847 277.447C44.2847 280.709 46.9273 283.354 50.1873 283.354Z" fill="#3F3D56"/>
<path d="M50.1873 275.965C53.4472 275.965 56.0899 273.321 56.0899 270.058C56.0899 266.796 53.4472 264.152 50.1873 264.152C46.9273 264.152 44.2847 266.796 44.2847 270.058C44.2847 273.321 46.9273 275.965 50.1873 275.965Z" fill="#3F3D56"/>
<path d="M50.1873 268.582C53.4472 268.582 56.0899 265.937 56.0899 262.675C56.0899 259.413 53.4472 256.768 50.1873 256.768C46.9273 256.768 44.2847 259.413 44.2847 262.675C44.2847 265.937 46.9273 268.582 50.1873 268.582Z" fill="#3F3D56"/>
<path d="M50.1873 261.193C53.4472 261.193 56.0899 258.549 56.0899 255.287C56.0899 252.025 53.4472 249.38 50.1873 249.38C46.9273 249.38 44.2847 252.025 44.2847 255.287C44.2847 258.549 46.9273 261.193 50.1873 261.193Z" fill="#3F3D56"/>
<path d="M50.1873 253.81C53.4472 253.81 56.0899 251.165 56.0899 247.903C56.0899 244.641 53.4472 241.997 50.1873 241.997C46.9273 241.997 44.2847 244.641 44.2847 247.903C44.2847 251.165 46.9273 253.81 50.1873 253.81Z" fill="#3F3D56"/>
<path d="M50.1873 246.427C53.4472 246.427 56.0899 243.782 56.0899 240.52C56.0899 237.258 53.4472 234.613 50.1873 234.613C46.9273 234.613 44.2847 237.258 44.2847 240.52C44.2847 243.782 46.9273 246.427 50.1873 246.427Z" fill="#3F3D56"/>
<path d="M59.0411 249.38C62.3011 249.38 64.9437 246.735 64.9437 243.473C64.9437 240.211 62.3011 237.567 59.0411 237.567C55.7812 237.567 53.1385 240.211 53.1385 243.473C53.1385 246.735 55.7812 249.38 59.0411 249.38Z" fill="#3F3D56"/>
<path d="M64.9437 246.427C68.2036 246.427 70.8463 243.782 70.8463 240.52C70.8463 237.258 68.2036 234.613 64.9437 234.613C61.6838 234.613 59.0411 237.258 59.0411 240.52C59.0411 243.782 61.6838 246.427 64.9437 246.427Z" fill="#3F3D56"/>
<path d="M70.8514 243.468C74.1114 243.468 76.754 240.824 76.754 237.562C76.754 234.299 74.1114 231.655 70.8514 231.655C67.5915 231.655 64.9489 234.299 64.9489 237.562C64.9489 240.824 67.5915 243.468 70.8514 243.468Z" fill="#3F3D56"/>
<path d="M50.1873 239.038C53.4472 239.038 56.0899 236.394 56.0899 233.132C56.0899 229.869 53.4472 227.225 50.1873 227.225C46.9273 227.225 44.2847 229.869 44.2847 233.132C44.2847 236.394 46.9273 239.038 50.1873 239.038Z" fill="#3F3D56"/>
<path d="M50.1873 231.655C53.4472 231.655 56.0899 229.01 56.0899 225.748C56.0899 222.486 53.4472 219.841 50.1873 219.841C46.9273 219.841 44.2847 222.486 44.2847 225.748C44.2847 229.01 46.9273 231.655 50.1873 231.655Z" fill="#3F3D56"/>
<path d="M50.1873 224.266C53.4472 224.266 56.0899 221.622 56.0899 218.36C56.0899 215.098 53.4472 212.453 50.1873 212.453C46.9273 212.453 44.2847 215.098 44.2847 218.36C44.2847 221.622 46.9273 224.266 50.1873 224.266Z" fill="#3F3D56"/>
<path d="M50.1873 216.883C53.4472 216.883 56.0899 214.239 56.0899 210.976C56.0899 207.714 53.4472 205.07 50.1873 205.07C46.9273 205.07 44.2847 207.714 44.2847 210.976C44.2847 214.239 46.9273 216.883 50.1873 216.883Z" fill="#3F3D56"/>
<path d="M74.6648 191.922C73.201 192.135 71.7304 192.291 70.253 192.389C71.6202 191.19 72.8902 189.886 74.0512 188.486C73.2459 186.007 72.0585 183.668 70.5319 181.555C69.0794 182.385 67.4698 182.904 65.8058 183.077C64.3454 183.29 62.8697 183.447 61.3941 183.549C63.3363 181.976 65.1364 179.596 67.0381 177.663C62.6295 173.656 56.9431 171.345 50.9913 171.141C45.0394 170.938 39.2085 172.854 34.5367 176.55C29.8649 180.246 26.6554 185.481 25.4797 191.323C24.3039 197.165 25.2383 203.235 28.1164 208.452C30.9945 213.67 35.6295 217.696 41.1962 219.813C46.7629 221.931 52.8999 222.003 58.5146 220.016C64.1292 218.029 68.8571 214.113 71.8564 208.965C74.8557 203.816 75.9318 197.77 74.893 191.902L74.6648 191.922Z" fill="white"/>
<path d="M94.3908 221.283C93.0014 222.262 91.1556 222.683 89.4264 222.937C87.9609 223.155 86.4903 223.307 85.0146 223.409C86.5359 222.186 87.9355 220.481 89.3858 218.872C85.8326 217.929 82.0554 218.345 78.7924 220.039C75.5295 221.734 73.0151 224.585 71.7409 228.036C70.4666 231.487 70.5239 235.289 71.9016 238.699C73.2793 242.11 75.8784 244.884 79.191 246.479C82.5036 248.075 86.2916 248.377 89.8147 247.326C93.3379 246.276 96.3431 243.948 98.2429 240.799C100.143 237.65 100.801 233.904 100.089 230.295C99.3762 226.686 97.3446 223.473 94.3908 221.283V221.283Z" fill="white"/>
<path d="M41.3283 249.38C44.5882 249.38 47.2309 246.735 47.2309 243.473C47.2309 240.211 44.5882 237.567 41.3283 237.567C38.0684 237.567 35.4257 240.211 35.4257 243.473C35.4257 246.735 38.0684 249.38 41.3283 249.38Z" fill="#3F3D56"/>
<path d="M35.4257 246.427C38.6856 246.427 41.3283 243.782 41.3283 240.52C41.3283 237.258 38.6856 234.613 35.4257 234.613C32.1658 234.613 29.5231 237.258 29.5231 240.52C29.5231 243.782 32.1658 246.427 35.4257 246.427Z" fill="#3F3D56"/>
<path d="M29.5231 243.468C32.7831 243.468 35.4257 240.824 35.4257 237.562C35.4257 234.299 32.7831 231.655 29.5231 231.655C26.2632 231.655 23.6205 234.299 23.6205 237.562C23.6205 240.824 26.2632 243.468 29.5231 243.468Z" fill="#3F3D56"/>
<path d="M5.98368 221.283C7.37312 222.262 9.21895 222.683 10.9532 222.937C12.4137 223.155 13.8842 223.307 15.3599 223.409C13.8386 222.186 12.439 220.481 10.9887 218.872C14.5419 217.929 18.3191 218.345 21.5821 220.039C24.8451 221.734 27.3594 224.585 28.6336 228.036C29.9079 231.487 29.8506 235.289 28.4729 238.699C27.0952 242.11 24.4961 244.884 21.1835 246.479C17.8709 248.075 14.0829 248.377 10.5598 247.326C7.03659 246.276 4.03145 243.948 2.13158 240.799C0.231706 237.65 -0.426354 233.904 0.285994 230.295C0.998342 226.686 3.0299 223.473 5.98368 221.283V221.283Z" fill="white"/>
<path d="M28.9044 278.924H77.3524C80.7146 278.924 83.9392 280.26 86.3167 282.639C88.6941 285.018 90.0298 288.245 90.0298 291.61V350.631C90.0298 351.202 89.8033 351.749 89.4 352.152C88.9968 352.556 88.4499 352.782 87.8797 352.782H18.3873C18.1041 352.784 17.8234 352.729 17.5614 352.622C17.2993 352.514 17.0611 352.356 16.8604 352.156C16.6596 351.956 16.5004 351.718 16.3917 351.457C16.283 351.195 16.227 350.914 16.2271 350.631V291.61C16.2271 288.245 17.5627 285.018 19.9402 282.639C22.3176 280.26 25.5422 278.924 28.9044 278.924V278.924Z" fill="#3F3D56"/>
<g opacity="0.1">
<path opacity="0.1" d="M75.111 193.535C74.5177 194.181 73.8806 194.784 73.2043 195.342C73.8788 195.296 74.5583 195.235 75.2327 195.169C75.2074 194.621 75.1719 194.073 75.111 193.535Z" fill="black"/>
<path opacity="0.1" d="M64.3505 186.482C65.8261 186.381 67.2967 186.228 68.7571 186.01C70.08 185.856 71.3742 185.514 72.6009 184.995C72.0012 183.803 71.3095 182.659 70.532 181.575C69.7988 182.028 69.0024 182.37 68.1689 182.59C66.9988 183.984 65.7222 185.286 64.3505 186.482V186.482Z" fill="black"/>
<path opacity="0.1" d="M28.0424 199.163C28.0335 194.655 29.2397 190.229 31.5339 186.349C33.8281 182.47 37.1253 179.281 41.0784 177.12C45.0314 174.958 49.4938 173.904 53.9955 174.067C58.4972 174.23 62.8716 175.606 66.6577 178.048C66.7845 177.916 66.9113 177.769 67.0381 177.642C64.5716 175.412 61.6865 173.696 58.5509 172.592C55.4152 171.488 52.0915 171.019 48.7731 171.213C45.4547 171.406 42.2079 172.258 39.2216 173.719C36.2352 175.179 33.569 177.22 31.3779 179.721C29.1869 182.223 27.5148 185.135 26.4589 188.289C25.4031 191.443 24.9845 194.776 25.2277 198.093C25.4708 201.411 26.3707 204.647 27.8751 207.613C29.3795 210.579 31.4583 213.216 33.9906 215.371C30.1451 210.848 28.0362 205.102 28.0424 199.163V199.163Z" fill="black"/>
</g>
<g opacity="0.1">
<path opacity="0.1" d="M85.0146 226.362C86.4886 226.267 87.9592 226.11 89.4264 225.89C91.1556 225.642 92.976 225.22 94.3908 224.236C96.0548 225.466 97.4413 227.033 98.46 228.835C99.4788 230.637 100.107 232.634 100.304 234.694C100.354 234.187 100.385 233.68 100.385 233.137C100.386 230.83 99.8459 228.556 98.8074 226.496C97.7689 224.437 96.2612 222.651 94.4061 221.283C93.0166 222.262 91.1708 222.683 89.4416 222.937C89.0511 222.993 88.6657 223.038 88.2803 223.084C87.2801 224.261 86.1881 225.358 85.0146 226.362Z" fill="black"/>
<path opacity="0.1" d="M85.5978 221.318C86.0928 221.326 86.587 221.36 87.0785 221.42C87.8493 220.598 88.5998 219.725 89.3756 218.882C87.1913 218.293 84.9005 218.216 82.6815 218.657C80.4625 219.098 78.3751 220.046 76.5818 221.426C74.7884 222.806 73.3375 224.582 72.3419 226.615C71.3462 228.647 70.8327 230.883 70.8413 233.147C70.8413 233.654 70.8666 234.162 70.9123 234.623C71.2757 230.978 72.9797 227.598 75.6934 225.14C78.4072 222.681 81.937 221.319 85.5978 221.318V221.318Z" fill="black"/>
</g>
<g opacity="0.1">
<path opacity="0.1" d="M15.3549 226.362C13.8809 226.267 12.412 226.11 10.9482 225.89C9.21393 225.642 7.3681 225.22 5.97866 224.236C4.31749 225.468 2.93391 227.035 1.91785 228.837C0.901794 230.639 0.275998 232.635 0.0811364 234.694C0.0304268 234.187 1.12388e-06 233.68 1.12388e-06 233.137C-0.000900077 230.83 0.540194 228.555 1.57961 226.496C2.61903 224.437 4.12766 222.651 5.98373 221.283C7.37317 222.262 9.219 222.683 10.9533 222.937C11.3387 222.993 11.7241 223.038 12.1095 223.084C13.1046 224.259 14.1897 225.355 15.3549 226.362V226.362Z" fill="black"/>
<path opacity="0.1" d="M14.7616 221.318C14.2666 221.326 13.7723 221.36 13.2808 221.42C12.5101 220.598 11.7596 219.725 10.9837 218.882C13.1681 218.293 15.4589 218.216 17.6779 218.657C19.8969 219.098 21.9842 220.046 23.7776 221.426C25.5709 222.806 27.0219 224.582 28.0175 226.615C29.0131 228.647 29.5266 230.883 29.5181 233.147C29.5181 233.654 29.5181 234.162 29.4471 234.623C29.0836 230.978 27.3797 227.598 24.6659 225.14C21.9522 222.681 18.4223 221.319 14.7616 221.318V221.318Z" fill="black"/>
</g>
<path d="M344.815 354.254L245.931 352.985L246.22 350.448L251.002 308.584H337.842L344.232 350.448L344.719 353.62L344.815 354.254Z" fill="white"/>
<path opacity="0.1" d="M344.719 353.62H295.373L245.931 352.985L246.22 350.448H344.232L344.719 353.62Z" fill="black"/>
<path d="M360.662 351.083H229.451V354.254H360.662V351.083Z" fill="white"/>
<path d="M485.849 57.1337C485.859 54.9436 485.001 52.8388 483.461 51.282C481.922 49.7253 479.827 48.844 477.639 48.8319H111.206C110.122 48.8372 109.05 49.0562 108.05 49.4763C107.05 49.8964 106.143 50.5093 105.38 51.2802C104.618 52.0511 104.014 52.9649 103.604 53.9692C103.194 54.9735 102.986 56.0489 102.991 57.1337V279.395H485.849V57.1337Z" fill="#444053"/>
<path d="M102.991 277.183V303.22C102.988 304.302 103.198 305.373 103.609 306.373C104.021 307.373 104.625 308.282 105.389 309.048C106.152 309.813 107.059 310.421 108.057 310.835C109.055 311.249 110.125 311.462 111.206 311.461H477.639C479.816 311.461 481.904 310.595 483.444 309.055C484.983 307.514 485.848 305.424 485.848 303.245V277.183H102.991Z" fill="white"/>
<path opacity="0.1" d="M471.904 62.7867H118.838V262.594H471.904V62.7867Z" fill="#00B0FF"/>
<path d="M296.322 301.561C297.618 301.562 298.898 301.268 300.064 300.702C301.231 300.136 302.254 299.312 303.056 298.293V298.293C303.298 297.981 303.52 297.654 303.72 297.313L299.024 296.542L304.095 296.578C304.584 295.518 304.851 294.369 304.879 293.202C304.907 292.035 304.695 290.875 304.258 289.793L297.447 293.345L303.73 288.727C303.154 287.692 302.368 286.788 301.424 286.072C300.48 285.356 299.397 284.844 298.245 284.568C297.093 284.293 295.896 284.26 294.73 284.472C293.565 284.683 292.456 285.135 291.474 285.798C290.491 286.461 289.658 287.321 289.025 288.323C288.392 289.325 287.975 290.448 287.798 291.62C287.622 292.792 287.691 293.989 288 295.133C288.31 296.277 288.854 297.344 289.597 298.267V298.267C290.395 299.291 291.416 300.119 292.58 300.689C293.745 301.26 295.025 301.558 296.322 301.561Z" fill="#00B0FF"/>
<path opacity="0.1" d="M304.881 311.436L344.328 351.082L338.279 311.436H304.881Z" fill="black"/>
<path d="M401.229 89.996H128.665V234.826H401.229V89.996Z" fill="white"/>
<path opacity="0.1" d="M219.892 127.75H143.868V131.693H219.892V127.75Z" fill="#00B0FF"/>
<path opacity="0.1" d="M157.95 106.899H150.628V127.75H157.95V106.899Z" fill="#00B0FF"/>
<path opacity="0.1" d="M168.65 106.899H161.328V127.75H168.65V106.899Z" fill="#00B0FF"/>
<path opacity="0.1" d="M179.35 106.899H172.027V127.75H179.35V106.899Z" fill="#00B0FF"/>
<path opacity="0.1" d="M190.049 106.899H182.727V127.75H190.049V106.899Z" fill="#00B0FF"/>
<path opacity="0.1" d="M200.749 106.899H193.427V127.75H200.749V106.899Z" fill="#00B0FF"/>
<path opacity="0.1" d="M211.449 106.899H204.126V127.75H211.449V106.899Z" fill="#00B0FF"/>
<path opacity="0.1" d="M157.95 110.847H150.628V113.1H157.95V110.847Z" fill="#00B0FF"/>
<path opacity="0.1" d="M168.65 110.847H161.328V113.1H168.65V110.847Z" fill="#00B0FF"/>
<path opacity="0.1" d="M179.35 110.847H172.027V113.1H179.35V110.847Z" fill="#00B0FF"/>
<path opacity="0.1" d="M190.049 110.847H182.727V113.1H190.049V110.847Z" fill="#00B0FF"/>
<path opacity="0.1" d="M200.749 110.847H193.427V113.1H200.749V110.847Z" fill="#00B0FF"/>
<path opacity="0.1" d="M211.449 110.847H204.126V113.1H211.449V110.847Z" fill="#00B0FF"/>
<path opacity="0.1" d="M157.95 120.991H150.628V123.244H157.95V120.991Z" fill="#00B0FF"/>
<path opacity="0.1" d="M168.65 120.991H161.328V123.244H168.65V120.991Z" fill="#00B0FF"/>
<path opacity="0.1" d="M179.35 120.991H172.027V123.244H179.35V120.991Z" fill="#00B0FF"/>
<path opacity="0.1" d="M190.049 120.991H182.727V123.244H190.049V120.991Z" fill="#00B0FF"/>
<path opacity="0.1" d="M200.749 120.991H193.427V123.244H200.749V120.991Z" fill="#00B0FF"/>
<path opacity="0.1" d="M211.449 120.991H204.126V123.244H211.449V120.991Z" fill="#00B0FF"/>
<path opacity="0.1" d="M386.585 137.894H310.561V141.837H386.585V137.894Z" fill="#00B0FF"/>
<path opacity="0.1" d="M324.643 117.043H317.32V137.894H324.643V117.043Z" fill="#00B0FF"/>
<path opacity="0.1" d="M335.342 117.043H328.02V137.894H335.342V117.043Z" fill="#00B0FF"/>
<path opacity="0.1" d="M346.042 117.043H338.72V137.894H346.042V117.043Z" fill="#00B0FF"/>
<path opacity="0.1" d="M356.742 117.043H349.419V137.894H356.742V117.043Z" fill="#00B0FF"/>
<path opacity="0.1" d="M367.442 117.043H360.119V137.894H367.442V117.043Z" fill="#00B0FF"/>
<path opacity="0.1" d="M378.141 117.043H370.819V137.894H378.141V117.043Z" fill="#00B0FF"/>
<path opacity="0.1" d="M324.643 120.991H317.32V123.244H324.643V120.991Z" fill="#00B0FF"/>
<path opacity="0.1" d="M335.342 120.991H328.02V123.244H335.342V120.991Z" fill="#00B0FF"/>
<path opacity="0.1" d="M346.042 120.991H338.72V123.244H346.042V120.991Z" fill="#00B0FF"/>
<path opacity="0.1" d="M356.742 120.991H349.419V123.244H356.742V120.991Z" fill="#00B0FF"/>
<path opacity="0.1" d="M367.442 120.991H360.119V123.244H367.442V120.991Z" fill="#00B0FF"/>
<path opacity="0.1" d="M378.141 120.991H370.819V123.244H378.141V120.991Z" fill="#00B0FF"/>
<path opacity="0.1" d="M324.643 131.135H317.32V133.388H324.643V131.135Z" fill="#00B0FF"/>
<path opacity="0.1" d="M335.342 131.135H328.02V133.388H335.342V131.135Z" fill="#00B0FF"/>
<path opacity="0.1" d="M346.042 131.135H338.72V133.388H346.042V131.135Z" fill="#00B0FF"/>
<path opacity="0.1" d="M356.742 131.135H349.419V133.388H356.742V131.135Z" fill="#00B0FF"/>
<path opacity="0.1" d="M367.442 131.135H360.119V133.388H367.442V131.135Z" fill="#00B0FF"/>
<path opacity="0.1" d="M378.141 131.135H370.819V133.388H378.141V131.135Z" fill="#00B0FF"/>
<path opacity="0.1" d="M386.585 166.636H310.561V170.579H386.585V166.636Z" fill="#00B0FF"/>
<path opacity="0.1" d="M324.643 145.785H317.32V166.636H324.643V145.785Z" fill="#00B0FF"/>
<path opacity="0.1" d="M335.342 145.785H328.02V166.636H335.342V145.785Z" fill="#00B0FF"/>
<path opacity="0.1" d="M346.042 145.785H338.72V166.636H346.042V145.785Z" fill="#00B0FF"/>
<path opacity="0.1" d="M356.742 145.785H349.419V166.636H356.742V145.785Z" fill="#00B0FF"/>
<path opacity="0.1" d="M367.442 145.785H360.119V166.636H367.442V145.785Z" fill="#00B0FF"/>
<path opacity="0.1" d="M378.141 145.785H370.819V166.636H378.141V145.785Z" fill="#00B0FF"/>
<path opacity="0.1" d="M324.643 149.728H317.32V151.981H324.643V149.728Z" fill="#00B0FF"/>
<path opacity="0.1" d="M335.342 149.728H328.02V151.981H335.342V149.728Z" fill="#00B0FF"/>
<path opacity="0.1" d="M346.042 149.728H338.72V151.981H346.042V149.728Z" fill="#00B0FF"/>
<path opacity="0.1" d="M356.742 149.728H349.419V151.981H356.742V149.728Z" fill="#00B0FF"/>
<path opacity="0.1" d="M367.442 149.728H360.119V151.981H367.442V149.728Z" fill="#00B0FF"/>
<path opacity="0.1" d="M378.141 149.728H370.819V151.981H378.141V149.728Z" fill="#00B0FF"/>
<path opacity="0.1" d="M324.643 159.871H317.32V162.125H324.643V159.871Z" fill="#00B0FF"/>
<path opacity="0.1" d="M335.342 159.871H328.02V162.125H335.342V159.871Z" fill="#00B0FF"/>
<path opacity="0.1" d="M346.042 159.871H338.72V162.125H346.042V159.871Z" fill="#00B0FF"/>
<path opacity="0.1" d="M356.742 159.871H349.419V162.125H356.742V159.871Z" fill="#00B0FF"/>
<path opacity="0.1" d="M367.442 159.871H360.119V162.125H367.442V159.871Z" fill="#00B0FF"/>
<path opacity="0.1" d="M378.141 159.871H370.819V162.125H378.141V159.871Z" fill="#00B0FF"/>
<path opacity="0.1" d="M190.496 172.344C189.927 171.62 189.408 170.857 188.944 170.061L199.892 168.265L188.031 168.361C186.896 165.888 186.277 163.21 186.211 160.489C186.146 157.769 186.636 155.063 187.651 152.539L203.533 160.785L188.888 150.012C190.256 147.633 192.1 145.563 194.304 143.929C196.508 142.295 199.024 141.134 201.697 140.517C204.369 139.9 207.14 139.841 209.836 140.344C212.532 140.847 215.096 141.9 217.367 143.439C219.638 144.977 221.568 146.967 223.036 149.286C224.504 151.604 225.479 154.2 225.9 156.912C226.32 159.624 226.178 162.394 225.481 165.048C224.784 167.702 223.548 170.184 221.849 172.339C222.74 173.465 223.507 174.683 224.136 175.973L209.938 183.356L225.085 178.282C226.15 181.427 226.413 184.789 225.852 188.062C225.291 191.335 223.922 194.417 221.87 197.027C224.185 199.972 225.626 203.51 226.027 207.236C226.428 210.962 225.773 214.726 224.137 218.097C222.501 221.468 219.951 224.31 216.776 226.299C213.602 228.288 209.933 229.342 206.188 229.342C202.443 229.342 198.773 228.288 195.599 226.299C192.425 224.31 189.874 221.468 188.238 218.097C186.602 214.726 185.947 210.962 186.348 207.236C186.749 203.51 188.19 199.972 190.506 197.027C187.74 193.507 186.236 189.16 186.236 184.683C186.236 180.206 187.74 175.859 190.506 172.339L190.496 172.344Z" fill="#00B0FF"/>
<path opacity="0.1" d="M226.129 184.691C226.135 189.168 224.631 193.517 221.86 197.032C224.175 199.977 225.616 203.515 226.017 207.241C226.418 210.967 225.763 214.731 224.127 218.102C222.491 221.473 219.94 224.315 216.766 226.304C213.592 228.293 209.923 229.347 206.178 229.347C202.433 229.347 198.763 228.293 195.589 226.304C192.415 224.315 189.864 221.473 188.228 218.102C186.592 214.731 185.937 210.967 186.338 207.241C186.739 203.515 188.18 199.977 190.496 197.032C187.823 193.637 226.129 182.448 226.129 184.691Z" fill="#00B0FF"/>
<path opacity="0.2" d="M209.38 234.659C209.415 234.715 209.441 234.771 209.476 234.826H202.701C202.737 234.771 202.762 234.715 202.798 234.659C202.216 233.643 201.915 232.491 201.926 231.32C201.925 230.519 202.064 229.724 202.336 228.97C202.336 228.97 202.336 228.97 202.336 228.97C202.712 229.031 203.178 229.097 203.716 229.153C205.287 229.31 206.87 229.31 208.442 229.153C208.888 229.107 209.36 229.042 209.836 228.97C209.837 228.982 209.837 228.994 209.836 229.006C210.103 229.748 210.239 230.531 210.237 231.32C210.252 232.489 209.956 233.642 209.38 234.659V234.659Z" fill="#3F3D56"/>
<path opacity="0.1" d="M185.034 234.837H147.357C147.271 234.618 147.195 234.39 147.129 234.167C145.8 229.891 145.956 225.291 147.57 221.115C143.888 218.57 141.168 214.86 139.847 210.581C138.526 206.303 138.682 201.704 140.288 197.524C139.53 196.998 138.809 196.421 138.128 195.799L148.057 190.846L136.774 194.429C134.958 192.401 133.575 190.024 132.71 187.443C131.845 184.862 131.516 182.131 131.743 179.418L149.35 182.6L132.18 176.632C132.787 173.956 133.938 171.433 135.563 169.222C137.188 167.011 139.251 165.159 141.623 163.781C143.995 162.404 146.625 161.53 149.35 161.215C152.075 160.901 154.835 161.151 157.458 161.952C160.082 162.752 162.512 164.085 164.598 165.867C166.683 167.65 168.379 169.843 169.58 172.311C170.78 174.778 171.46 177.467 171.575 180.209C171.691 182.951 171.241 185.688 170.252 188.248C171.432 189.066 172.521 190.006 173.503 191.054L162.103 202.309L175.08 192.972C177.025 195.665 178.268 198.8 178.696 202.094C179.125 205.389 178.725 208.738 177.534 211.839C181.126 214.324 183.805 217.918 185.159 222.072C186.514 226.226 186.47 230.71 185.034 234.837V234.837Z" fill="#00B0FF"/>
<path opacity="0.1" d="M185.034 234.837H147.357C147.271 234.618 147.195 234.39 147.129 234.167C145.8 229.891 145.956 225.291 147.57 221.115C144.02 218.654 177.316 196.651 177.996 198.788C179.319 203.066 179.164 207.665 177.555 211.844C181.142 214.331 183.815 217.926 185.166 222.079C186.517 226.232 186.471 230.713 185.034 234.837V234.837Z" fill="#00B0FF"/>
<path opacity="0.1" d="M355.647 207.785C353.358 211.632 349.838 214.593 345.657 216.188C345.835 217.614 345.864 219.054 345.743 220.486L329.759 219.527L345.368 222.942C344.336 227.714 341.597 231.945 337.665 234.837H315.911V235.4H293.766C293.811 235.207 293.857 235.019 293.908 234.837C294.722 231.776 296.249 228.951 298.364 226.595C300.48 224.239 303.123 222.419 306.078 221.283C305.512 216.84 306.455 212.335 308.754 208.493C311.052 204.65 314.575 201.691 318.755 200.092C318.636 199.178 318.58 198.257 318.588 197.336L328.907 201.396L318.705 195.398C318.996 192.695 319.835 190.08 321.17 187.712C322.505 185.344 324.307 183.273 326.468 181.626L335.87 196.849L328.826 180.103C332.664 177.968 337.098 177.158 341.441 177.801C345.785 178.444 349.795 180.503 352.851 183.658C355.906 186.814 357.835 190.89 358.34 195.255C358.845 199.62 357.896 204.029 355.642 207.8L355.647 207.785Z" fill="#00B0FF"/>
<path opacity="0.1" d="M342.984 228.976C341.626 231.27 339.817 233.264 337.665 234.837H315.911V235.4H293.766C293.811 235.207 293.857 235.019 293.908 234.837C294.722 231.776 296.249 228.951 298.364 226.595C300.48 224.239 303.123 222.419 306.078 221.283C305.89 219.826 310.191 220.024 315.916 220.988C327.107 222.866 343.745 227.702 342.984 228.976Z" fill="#00B0FF"/>
<path d="M248.705 175.699C248.705 175.699 251.418 190.501 245.333 195.327C239.248 200.153 250.475 229.113 269.126 225.738C287.777 222.364 295.333 198.062 295.333 198.062C295.333 198.062 276.682 194.205 283.593 174.577L248.705 175.699Z" fill="#EFB7B9"/>
<path opacity="0.1" d="M248.705 175.699C248.705 175.699 251.418 190.501 245.333 195.327C239.248 200.153 250.475 229.113 269.126 225.738C287.777 222.364 295.333 198.062 295.333 198.062C295.333 198.062 276.682 194.205 283.593 174.577L248.705 175.699Z" fill="black"/>
<path d="M265.186 186.558C282.233 186.558 296.053 172.729 296.053 155.67C296.053 138.611 282.233 124.781 265.186 124.781C248.138 124.781 234.319 138.611 234.319 155.67C234.319 172.729 248.138 186.558 265.186 186.558Z" fill="#EFB7B9"/>
<path d="M315.911 214.392V235.39H213.984V215.351C213.985 212.809 214.734 210.323 216.137 208.205C217.54 206.086 219.536 204.427 221.875 203.436L224.801 202.193C232.194 199.041 241.175 195.129 244.111 193.5C244.433 193.34 244.735 193.144 245.014 192.916C246.621 191.308 246.302 193.398 246.302 193.398C246.302 193.398 246.256 193.794 246.225 194.484C246.053 199.209 246.733 217.791 268.487 216.244C289.714 214.721 290.647 200.391 290.454 196.174C290.442 195.784 290.408 195.394 290.353 195.007C290.353 194.895 292.179 195.515 294.653 196.408C299.1 198.047 305.637 200.685 307.396 201.929C307.944 202.309 308.608 202.715 309.328 203.116C311.333 204.236 313.001 205.872 314.161 207.854C315.32 209.837 315.928 212.094 315.921 214.392H315.911Z" fill="#00B0FF"/>
<path opacity="0.1" d="M294.648 196.408C292.853 204.74 287.214 220.349 266.874 220.765C245.216 221.191 243.969 199.635 244.101 193.52C244.425 193.36 244.729 193.162 245.008 192.932C246.616 191.323 246.296 193.414 246.296 193.414C246.296 193.414 243.563 218.03 268.482 216.249C293.401 214.468 290.348 195.012 290.348 195.012C290.348 194.895 292.173 195.494 294.648 196.408Z" fill="black"/>
<path d="M228.65 157.197C230.678 156.538 233.097 157.654 234.228 159.227C235.358 160.8 235.516 162.703 235.653 164.525C236.996 164.809 237.752 163.287 237.874 162.145C238.381 157.471 238.406 152.711 239.973 148.205C241.54 143.699 244.963 139.335 250.226 137.6C252.016 136.978 253.929 136.795 255.805 137.067C256.915 137.255 257.965 137.64 259.075 137.823C262.914 138.457 267.098 136.636 270.703 137.904C272.96 138.701 274.415 140.543 275.449 142.39C275.911 143.382 276.534 144.289 277.295 145.074C278.817 146.444 281.23 146.805 283.421 147.236C285.612 147.667 288.015 148.408 288.953 150.103C289.8 151.625 289.177 153.402 288.893 155.066C288.459 157.688 288.899 160.381 290.145 162.728C290.551 163.5 291.372 164.373 292.341 164.124C292.782 163.975 293.154 163.672 293.391 163.271C295.926 159.719 295.845 155.112 299.004 151.94C300.064 150.88 301.428 150.047 302.457 148.966C303.236 148.179 303.808 147.211 304.12 146.148C304.433 145.085 304.476 143.961 304.247 142.877C303.679 140.436 301.712 138.401 300.155 136.28C298.109 133.562 296.618 130.467 295.769 127.172C295.619 126.79 295.619 126.366 295.769 125.984C296.067 125.596 296.45 125.281 296.889 125.066C297.75 124.495 298.373 123.629 298.641 122.631C298.909 121.633 298.803 120.572 298.345 119.646C297.462 117.804 295.48 116.439 293.304 115.617C291.129 114.795 288.74 114.445 286.377 114.095C284.826 114.323 283.005 113.435 282.523 112.192C282.31 111.639 282.31 111.04 282.092 110.487C281.671 109.426 280.46 108.675 279.156 108.416C277.831 108.199 276.473 108.295 275.191 108.695C273.73 109.107 272.037 109.71 270.764 109.01C270.095 108.63 269.719 107.939 268.999 107.63C267.539 107.006 265.997 108.264 264.942 109.304C263.919 110.388 262.666 111.229 261.276 111.766C259.811 112.273 258.005 112.273 256.743 111.466C255.728 110.822 255.221 109.786 254.415 108.964C253.092 107.61 250.997 106.874 248.908 106.706C246.813 106.596 244.713 106.826 242.691 107.386C238.83 108.322 235.142 109.864 231.763 111.953C230.074 113.014 228.457 114.252 227.574 115.85C226.948 117.097 226.624 118.474 226.631 119.869C226.474 124.239 227.924 128.846 231.702 131.906C229.4 132.87 228.619 135.23 228.082 137.326C227.22 140.665 226.352 144.065 226.677 147.475C226.839 149.235 227.321 150.996 227.062 152.747C226.941 153.594 226.646 154.427 226.717 155.284C226.812 155.76 227.046 156.196 227.39 156.537C227.735 156.878 228.173 157.108 228.65 157.197V157.197Z" fill="#454B69"/>
<g opacity="0.1">
<path opacity="0.1" d="M303.801 141.558C303.467 142.281 303.016 142.944 302.467 143.522C301.453 144.602 300.074 145.435 299.014 146.5C295.855 149.667 295.921 154.29 293.401 157.832C293.164 158.231 292.791 158.532 292.351 158.679C291.382 158.928 290.561 158.055 290.155 157.284C289.662 156.345 289.293 155.348 289.055 154.315C289.001 154.572 288.95 154.831 288.903 155.091C288.469 157.714 288.909 160.406 290.155 162.754C290.561 163.525 291.382 164.398 292.351 164.149C292.792 164 293.164 163.698 293.401 163.297C295.936 159.745 295.855 155.137 299.014 151.965C300.074 150.905 301.438 150.073 302.467 148.992C303.246 148.205 303.818 147.236 304.13 146.173C304.443 145.11 304.486 143.986 304.258 142.902C304.149 142.44 303.996 141.99 303.801 141.558V141.558Z" fill="black"/>
<path opacity="0.1" d="M296.91 119.646C296.47 119.858 296.086 120.171 295.789 120.56C295.639 120.941 295.639 121.365 295.789 121.747C296.081 122.897 296.456 124.025 296.91 125.121V125.121C297.78 124.546 298.408 123.669 298.673 122.658C298.938 121.648 298.821 120.575 298.345 119.646C298.202 119.344 298.032 119.055 297.838 118.783C297.573 119.116 297.26 119.407 296.91 119.646V119.646Z" fill="black"/>
<path opacity="0.1" d="M231.697 126.487C229.082 124.323 227.357 121.269 226.854 117.911C226.723 118.58 226.649 119.259 226.631 119.94C226.468 123.165 227.32 126.359 229.065 129.074C229.596 127.918 230.533 126.997 231.697 126.487Z" fill="black"/>
<path opacity="0.1" d="M288.903 149.621C289.187 147.957 289.81 146.186 288.964 144.658C288.025 142.963 285.627 142.217 283.431 141.791C281.235 141.365 278.837 141 277.305 139.629C276.545 138.844 275.921 137.937 275.46 136.945C274.445 135.098 272.97 133.256 270.713 132.459C267.108 131.191 262.924 133.012 259.085 132.378C257.975 132.195 256.925 131.81 255.815 131.622C253.942 131.342 252.029 131.516 250.237 132.129C244.973 133.865 241.55 138.219 239.983 142.735C238.416 147.251 238.381 152.001 237.884 156.675C237.762 157.816 237.006 159.339 235.663 159.054C235.526 157.233 235.358 155.33 234.238 153.757C233.117 152.184 230.724 151.062 228.66 151.727C228.035 151.586 227.481 151.226 227.098 150.712C227.168 151.387 227.158 152.069 227.067 152.742C226.946 153.589 226.652 154.422 226.723 155.279C226.815 155.755 227.049 156.192 227.392 156.534C227.736 156.876 228.174 157.107 228.65 157.197C230.678 156.538 233.097 157.654 234.228 159.227C235.358 160.8 235.516 162.703 235.653 164.525C236.996 164.809 237.752 163.287 237.874 162.145C238.381 157.471 238.406 152.711 239.973 148.205C241.54 143.699 244.963 139.335 250.226 137.6C252.017 136.978 253.929 136.795 255.805 137.067C256.915 137.255 257.965 137.64 259.075 137.823C262.914 138.457 267.098 136.636 270.703 137.904C272.96 138.701 274.415 140.543 275.449 142.39C275.911 143.382 276.534 144.289 277.295 145.074C278.817 146.444 281.23 146.805 283.421 147.236C285.612 147.667 287.838 148.358 288.842 149.931C288.867 149.844 288.882 149.733 288.903 149.621Z" fill="black"/>
<path opacity="0.1" d="M227.078 147.317C227.196 145.939 227.114 144.551 226.834 143.197C226.617 144.626 226.57 146.075 226.692 147.515C226.723 147.886 226.773 148.251 226.824 148.621C226.885 148.185 226.996 147.754 227.078 147.317Z" fill="black"/>
</g>
<path d="M460.813 203.314H415.175V235.004H460.813V203.314Z" fill="white"/>
<path opacity="0.1" d="M456.746 227.225C456.095 228.32 455.092 229.163 453.901 229.615C453.953 230.021 453.961 230.43 453.927 230.838L449.363 230.564L453.805 231.538C453.509 232.893 452.73 234.094 451.614 234.918H445.438V235.08H439.14C439.14 235.024 439.14 234.974 439.18 234.918C439.316 234.402 439.524 233.908 439.799 233.451C440.45 232.357 441.45 231.515 442.639 231.061C442.477 229.797 442.744 228.515 443.398 227.422C444.052 226.328 445.055 225.487 446.244 225.033C446.209 224.774 446.194 224.512 446.199 224.251L449.135 225.408L446.229 223.703C446.311 222.933 446.55 222.187 446.931 221.512C447.312 220.838 447.828 220.248 448.445 219.781L451.117 224.114L449.114 219.344C450.206 218.75 451.462 218.53 452.691 218.718C453.919 218.907 455.052 219.493 455.915 220.388C456.778 221.282 457.325 222.435 457.47 223.67C457.616 224.905 457.353 226.154 456.721 227.225H456.746Z" fill="#00B0FF"/>
<path opacity="0.1" d="M453.141 233.269C452.752 233.921 452.235 234.488 451.62 234.933H445.438V235.095H439.14C439.14 235.04 439.14 234.989 439.18 234.933C439.316 234.417 439.524 233.923 439.799 233.466C440.45 232.373 441.45 231.53 442.639 231.076C442.588 230.665 443.81 230.721 445.438 230.995C448.623 231.533 453.359 232.908 453.141 233.269Z" fill="#00B0FF"/>
<path opacity="0.1" d="M416.909 227.225C417.56 228.32 418.563 229.163 419.754 229.615C419.702 230.021 419.694 230.43 419.728 230.838L424.292 230.564L419.85 231.538C420.147 232.893 420.925 234.094 422.041 234.918H428.232V235.08H434.536C434.536 235.024 434.505 234.974 434.495 234.918C434.355 234.403 434.147 233.91 433.876 233.451C433.223 232.358 432.221 231.516 431.032 231.061C431.194 229.797 430.926 228.515 430.272 227.422C429.618 226.328 428.616 225.487 427.426 225.033C427.461 224.774 427.478 224.513 427.477 224.251L424.541 225.408L427.441 223.703C427.359 222.933 427.12 222.187 426.739 221.512C426.358 220.838 425.843 220.248 425.225 219.781L422.553 224.114L424.556 219.344C423.464 218.75 422.208 218.53 420.98 218.718C419.751 218.907 418.619 219.493 417.755 220.388C416.892 221.282 416.346 222.435 416.2 223.67C416.055 224.905 416.318 226.154 416.949 227.225H416.909Z" fill="#00B0FF"/>
<path opacity="0.1" d="M420.514 233.269C420.903 233.921 421.421 234.488 422.036 234.933H428.227V235.095H434.53C434.53 235.04 434.5 234.989 434.49 234.933C434.35 234.419 434.142 233.925 433.871 233.466C433.217 232.373 432.216 231.531 431.026 231.076C431.077 230.665 429.855 230.721 428.227 230.995C425.033 231.533 420.281 232.908 420.514 233.269Z" fill="#00B0FF"/>
<path d="M442.502 210.296H432.304V221.663H442.502V210.296Z" fill="#464353"/>
<path opacity="0.1" d="M442.502 210.296H432.304V221.663H442.502V210.296Z" fill="black"/>
<path d="M427.959 232.066L427.751 235.019H430.661L430.844 231.117L427.959 232.066Z" fill="#A1616A"/>
<path d="M443.293 232.066L442.852 235.019H445.519L445.687 231.117L443.293 232.066Z" fill="#A1616A"/>
<path d="M434.85 215.985C434.85 215.985 434.748 217.462 434.393 217.847C434.039 218.233 437.563 221.648 440.337 218.274C440.337 218.274 439.145 217.259 439.424 216.122C439.703 214.985 434.85 215.985 434.85 215.985Z" fill="#A1616A"/>
<path opacity="0.1" d="M434.85 215.985C434.85 215.985 434.748 217.462 434.393 217.847C434.039 218.233 437.563 221.648 440.337 218.274C440.337 218.274 439.145 217.259 439.424 216.122C439.703 214.985 434.85 215.985 434.85 215.985Z" fill="black"/>
<path d="M437.401 217.304C440.218 217.304 442.502 215.019 442.502 212.199C442.502 209.38 440.218 207.094 437.401 207.094C434.583 207.094 432.299 209.38 432.299 212.199C432.299 215.019 434.583 217.304 437.401 217.304Z" fill="#A1616A"/>
<path d="M437.137 219.151C437.137 219.151 434.997 219.116 434.677 217.162C434.253 217.529 433.806 217.868 433.339 218.177C433.131 218.248 431.087 219.405 430.702 219.476C430.325 219.553 429.975 219.728 429.688 219.984C429.184 220.38 428.772 220.881 428.48 221.452C428.188 222.023 428.024 222.651 427.999 223.292C427.928 225.581 427.649 230.051 427.649 230.051L427.756 231.67V232.726C427.756 232.726 429.652 233.233 430.798 232.218C430.798 232.218 430.798 231.832 431.011 231.711C431.224 231.589 431.255 231.076 431.219 230.863C431.201 230.547 431.201 230.23 431.219 229.914C431.256 230.086 431.358 230.237 431.503 230.336C431.587 230.622 431.611 230.922 431.574 231.218C431.468 231.427 431.361 231.919 431.468 232.025C431.521 232.12 431.543 232.229 431.531 232.336C431.518 232.444 431.471 232.545 431.397 232.624C431.203 232.895 431.049 233.192 430.94 233.507C430.94 233.507 430.834 234.136 430.727 234.207C430.607 234.465 430.525 234.738 430.484 235.019H443.161C442.937 234.377 442.768 233.716 442.654 233.045C442.69 232.731 442.34 231.427 442.583 231.076C442.941 230.612 443.139 230.044 443.146 229.458L443.288 230.828L442.903 233.872C442.903 233.872 445.255 234.613 445.504 234.152C445.767 233.348 445.967 232.525 446.102 231.69C446.102 231.69 446.665 229.153 446.807 228.803C446.949 228.453 447.264 221.415 445.362 220.395C443.46 219.375 439.875 217.619 439.784 217.705C439.581 218.218 439.205 218.643 438.722 218.907C438.238 219.171 437.677 219.258 437.137 219.151V219.151Z" fill="#00B0FF"/>
<path opacity="0.1" d="M431.026 226.032C430.664 226.551 430.509 227.186 430.59 227.813C430.676 228.435 430.879 229.034 431.189 229.579" stroke="black" stroke-miterlimit="10"/>
<path opacity="0.1" d="M443.344 226.514C443.435 226.772 443.506 227.037 443.557 227.306C443.648 227.642 443.665 227.994 443.607 228.337C443.55 228.681 443.418 229.008 443.222 229.295" stroke="black" stroke-miterlimit="10"/>
<path d="M435.119 208.708C435.517 208.602 435.941 208.645 436.31 208.83C436.673 209.017 437.054 209.169 437.446 209.282C437.71 209.337 437.953 209.337 438.248 209.378C438.737 209.467 439.189 209.701 439.545 210.049C439.901 210.397 440.145 210.844 440.245 211.332C440.474 212.58 439.738 213.808 439.738 215.082C439.741 215.811 439.998 216.516 440.464 217.076C440.855 217.433 441.196 217.841 441.478 218.289C441.625 218.614 441.655 218.984 441.797 219.304C442.107 219.878 442.621 220.316 443.237 220.532C443.848 220.737 444.438 221.002 444.997 221.323C446.011 221.998 446.61 223.292 447.786 223.571C447.844 223.597 447.907 223.61 447.971 223.61C448.035 223.61 448.098 223.597 448.156 223.571C448.21 223.529 448.253 223.475 448.283 223.413C448.313 223.352 448.328 223.284 448.329 223.216C448.358 222.968 448.331 222.716 448.249 222.48C448.167 222.243 448.033 222.028 447.857 221.851C447.568 221.562 447.147 221.344 447.056 220.953C446.965 220.562 447.208 220.227 447.34 219.872C447.761 218.72 447.061 217.467 446.265 216.533C445.469 215.599 444.515 214.676 444.323 213.488C444.277 213.087 444.262 212.684 444.277 212.281C444.262 211.45 444.119 210.626 443.851 209.84C443.722 209.415 443.516 209.017 443.242 208.668C442.989 208.363 442.664 208.13 442.401 207.835C442.05 207.351 441.735 206.842 441.457 206.313C441.054 205.686 440.504 205.167 439.854 204.801C439.205 204.436 438.475 204.236 437.73 204.217C436.305 204.217 434.956 204.847 433.75 205.603C433.306 205.845 432.921 206.183 432.624 206.592C432.117 207.399 432.269 208.465 431.975 209.378C431.681 210.291 430.986 210.966 430.742 211.859C430.668 212.122 430.655 212.398 430.707 212.666C430.797 212.949 430.918 213.221 431.067 213.478C431.336 214.132 431.489 214.827 431.518 215.533C431.594 216.386 431.63 217.304 431.184 218.03C430.837 218.47 430.406 218.836 429.916 219.106C430.413 219.51 431.048 219.704 431.686 219.649C432.649 219.689 433.765 219.649 434.363 218.888C434.721 218.341 434.866 217.682 434.769 217.035C434.722 216.329 434.578 215.633 434.343 214.965C434.013 214.026 433.506 213.138 433.359 212.154C433.301 211.799 433.317 211.436 433.404 211.087C433.491 210.738 433.648 210.41 433.866 210.124C434.049 209.896 434.373 209.779 434.525 209.535C434.718 209.211 434.662 208.871 435.119 208.708Z" fill="#464353"/>
<g opacity="0.1">
<path opacity="0.1" d="M431.067 213.412C431.336 214.066 431.489 214.761 431.518 215.467C431.518 215.691 431.554 215.919 431.559 216.147C431.612 215.651 431.612 215.151 431.559 214.655C431.528 213.958 431.375 213.271 431.107 212.626C430.962 212.369 430.841 212.099 430.747 211.819C430.672 212.08 430.66 212.354 430.712 212.621C430.802 212.896 430.921 213.162 431.067 213.412V213.412Z" fill="black"/>
<path opacity="0.1" d="M434.409 218.091C433.81 218.847 432.695 218.893 431.731 218.857C431.324 218.858 430.918 218.797 430.529 218.674C430.337 218.832 430.129 218.979 429.926 219.121C430.423 219.525 431.058 219.719 431.696 219.664C432.659 219.705 433.775 219.664 434.373 218.903C434.716 218.395 434.864 217.78 434.789 217.172C434.744 217.506 434.613 217.823 434.409 218.091Z" fill="black"/>
<path opacity="0.1" d="M447.091 220.121C447.105 220.178 447.126 220.235 447.152 220.288C447.213 220.146 447.284 219.999 447.34 219.852C447.461 219.517 447.496 219.158 447.441 218.806C447.424 218.887 447.402 218.967 447.375 219.045C447.243 219.4 447.005 219.755 447.091 220.121Z" fill="black"/>
<path opacity="0.1" d="M440.276 211.575C440.334 211.228 440.334 210.873 440.276 210.525C440.176 210.037 439.933 209.589 439.576 209.241C439.22 208.893 438.768 208.659 438.278 208.571C438.009 208.525 437.74 208.525 437.477 208.475C437.085 208.36 436.705 208.208 436.341 208.023C435.972 207.836 435.548 207.791 435.149 207.896C434.693 208.059 434.749 208.404 434.546 208.739C434.399 208.982 434.069 209.104 433.886 209.327C433.485 209.864 433.303 210.534 433.379 211.2C433.443 210.811 433.605 210.446 433.851 210.139C434.034 209.911 434.358 209.794 434.51 209.55C434.713 209.211 434.657 208.871 435.114 208.708C435.512 208.602 435.936 208.645 436.305 208.83C436.668 209.017 437.049 209.169 437.441 209.282C437.705 209.337 437.948 209.337 438.242 209.378C438.732 209.467 439.184 209.701 439.54 210.049C439.896 210.397 440.14 210.844 440.24 211.332C440.257 211.412 440.269 211.493 440.276 211.575V211.575Z" fill="black"/>
<path opacity="0.1" d="M448.171 222.744C448.052 222.791 447.92 222.791 447.801 222.744C446.625 222.465 446.016 221.171 445.012 220.496C444.451 220.179 443.862 219.914 443.252 219.705C442.636 219.491 442.123 219.055 441.812 218.482C441.67 218.152 441.64 217.786 441.493 217.467C441.211 217.019 440.869 216.611 440.479 216.254C440.056 215.751 439.801 215.128 439.748 214.473C439.718 214.669 439.703 214.868 439.703 215.066C439.712 215.805 439.981 216.517 440.463 217.076C440.854 217.433 441.196 217.841 441.478 218.289C441.625 218.614 441.655 218.984 441.797 219.304C442.107 219.878 442.621 220.316 443.237 220.532C443.848 220.737 444.438 221.002 444.997 221.323C446.011 221.998 446.609 223.292 447.786 223.571C447.844 223.597 447.907 223.61 447.971 223.61C448.035 223.61 448.098 223.597 448.156 223.571C448.209 223.529 448.252 223.474 448.282 223.413C448.312 223.352 448.328 223.284 448.328 223.216C448.351 223.025 448.341 222.831 448.298 222.643C448.266 222.687 448.222 222.722 448.171 222.744V222.744Z" fill="black"/>
</g>
<path opacity="0.1" d="M426.351 205.643H419.83V214.965H426.351V205.643Z" fill="#00B0FF"/>
<path opacity="0.1" d="M425.418 206.978H420.763V213.635H425.418V206.978Z" fill="#00B0FF"/>
<path opacity="0.1" d="M458.481 207.044H447.771V212.636H458.481V207.044Z" fill="#00B0FF"/>
<path opacity="0.1" d="M457.086 207.774H449.17V211.91H457.086V207.774Z" fill="#00B0FF"/>
</svg>
